<svg width="382" height="382" viewBox="0 0 382 382" fill="none" xmlns="http://www.w3.org/2000/svg">
<path d="M0 38.521C0 17.2464 17.2464 0 38.521 0H343.479C364.754 0 382 17.2464 382 38.521V343.479C382 364.754 364.754 382 343.479 382H38.521C17.2464 382 0 364.754 0 343.479V38.521Z" fill="black"/>
<path d="M77.2604 219.759C73.9701 219.709 71.2872 219.354 69.2118 218.696C67.187 218.038 65.5672 217.127 64.3523 215.963C63.188 214.748 62.3781 213.305 61.9225 211.635C61.5176 209.914 61.3151 207.99 61.3151 205.864V161.901L72.6287 160.078V203.586C72.6287 204.599 72.7046 205.51 72.8565 206.32C73.0083 207.13 73.2867 207.813 73.6917 208.37C74.1473 208.927 74.78 209.382 75.5899 209.737C76.3999 210.091 77.4882 210.319 78.8549 210.42L77.2604 219.759ZM101.714 211.103C102.828 211.103 103.891 211.078 104.903 211.027C105.915 210.977 106.725 210.901 107.333 210.8V202.219C106.877 202.118 106.194 202.017 105.283 201.916C104.372 201.815 103.536 201.764 102.777 201.764C101.714 201.764 100.702 201.84 99.7398 201.992C98.8287 202.093 98.0188 202.321 97.3101 202.675C96.6014 203.029 96.0446 203.51 95.6396 204.118C95.2347 204.725 95.0322 205.484 95.0322 206.396C95.0322 208.167 95.6143 209.408 96.7786 210.116C97.9934 210.774 99.6386 211.103 101.714 211.103ZM100.803 177.998C104.144 177.998 106.928 178.377 109.155 179.137C111.382 179.896 113.154 180.984 114.47 182.402C115.837 183.819 116.799 185.54 117.356 187.565C117.912 189.59 118.191 191.842 118.191 194.323V217.861C116.571 218.215 114.318 218.62 111.433 219.076C108.548 219.582 105.055 219.835 100.955 219.835C98.3731 219.835 96.0193 219.607 93.8932 219.152C91.8178 218.696 90.0208 217.962 88.5022 216.95C86.9836 215.887 85.8193 214.52 85.0094 212.85C84.1995 211.179 83.7945 209.129 83.7945 206.699C83.7945 204.371 84.2501 202.397 85.1613 200.777C86.1231 199.157 87.3886 197.866 88.9578 196.904C90.527 195.943 92.324 195.259 94.3488 194.854C96.3736 194.399 98.4743 194.171 100.651 194.171C102.119 194.171 103.41 194.247 104.523 194.399C105.688 194.5 106.624 194.652 107.333 194.854V193.791C107.333 191.868 106.751 190.324 105.586 189.16C104.422 187.995 102.397 187.413 99.512 187.413C97.5885 187.413 95.6902 187.565 93.8173 187.869C91.9444 188.122 90.3245 188.501 88.9578 189.008L87.5151 179.896C88.1732 179.694 88.9831 179.491 89.9449 179.289C90.9573 179.036 92.0456 178.833 93.2099 178.681C94.3741 178.479 95.589 178.327 96.8545 178.226C98.1706 178.074 99.4867 177.998 100.803 177.998ZM128.421 180.428C130.345 179.871 132.825 179.365 135.862 178.909C138.9 178.403 142.089 178.15 145.43 178.15C148.821 178.15 151.63 178.605 153.858 179.516C156.136 180.377 157.933 181.617 159.249 183.237C160.565 184.857 161.501 186.78 162.058 189.008C162.615 191.235 162.893 193.715 162.893 196.449V219H151.58V197.816C151.58 194.171 151.099 191.589 150.137 190.071C149.175 188.552 147.378 187.793 144.746 187.793C143.936 187.793 143.076 187.843 142.165 187.945C141.253 187.995 140.443 188.071 139.735 188.172V219H128.421V180.428ZM182.777 198.727C182.777 202.219 183.562 205.029 185.131 207.155C186.7 209.281 189.029 210.344 192.116 210.344C193.129 210.344 194.065 210.319 194.926 210.268C195.786 210.167 196.495 210.066 197.052 209.964V189.387C196.343 188.932 195.407 188.552 194.242 188.248C193.129 187.945 191.99 187.793 190.826 187.793C185.46 187.793 182.777 191.437 182.777 198.727ZM208.365 217.709C207.353 218.013 206.189 218.317 204.873 218.62C203.557 218.873 202.164 219.101 200.696 219.304C199.279 219.506 197.811 219.658 196.293 219.759C194.825 219.911 193.407 219.987 192.04 219.987C188.75 219.987 185.814 219.506 183.233 218.544C180.651 217.583 178.474 216.216 176.703 214.444C174.931 212.622 173.564 210.445 172.602 207.914C171.691 205.333 171.236 202.447 171.236 199.258C171.236 196.019 171.641 193.108 172.451 190.526C173.26 187.894 174.425 185.667 175.943 183.844C177.462 182.022 179.31 180.63 181.486 179.668C183.713 178.706 186.244 178.226 189.079 178.226C190.648 178.226 192.04 178.377 193.255 178.681C194.521 178.985 195.786 179.415 197.052 179.972V161.901L208.365 160.078V217.709ZM230.272 219H218.959V179.061H230.272V219ZM231.335 167.519C231.335 169.595 230.652 171.24 229.285 172.455C227.969 173.619 226.4 174.201 224.578 174.201C222.755 174.201 221.161 173.619 219.794 172.455C218.478 171.24 217.82 169.595 217.82 167.519C217.82 165.444 218.478 163.824 219.794 162.66C221.161 161.445 222.755 160.838 224.578 160.838C226.4 160.838 227.969 161.445 229.285 162.66C230.652 163.824 231.335 165.444 231.335 167.519ZM240.907 180.428C242.831 179.871 245.311 179.365 248.348 178.909C251.386 178.403 254.575 178.15 257.916 178.15C261.307 178.15 264.117 178.605 266.344 179.516C268.622 180.377 270.419 181.617 271.735 183.237C273.051 184.857 273.988 186.78 274.544 189.008C275.101 191.235 275.38 193.715 275.38 196.449V219H264.066V197.816C264.066 194.171 263.585 191.589 262.623 190.071C261.662 188.552 259.865 187.793 257.232 187.793C256.422 187.793 255.562 187.843 254.651 187.945C253.74 187.995 252.93 188.071 252.221 188.172V219H240.907V180.428ZM322.978 198.954C322.978 202.093 322.522 204.978 321.611 207.61C320.7 210.192 319.384 212.419 317.662 214.292C315.941 216.115 313.866 217.532 311.436 218.544C309.057 219.557 306.374 220.063 303.388 220.063C300.452 220.063 297.769 219.557 295.339 218.544C292.96 217.532 290.91 216.115 289.189 214.292C287.468 212.419 286.126 210.192 285.164 207.61C284.203 204.978 283.722 202.093 283.722 198.954C283.722 195.816 284.203 192.956 285.164 190.374C286.177 187.793 287.544 185.591 289.265 183.768C291.036 181.946 293.112 180.529 295.491 179.516C297.921 178.504 300.553 177.998 303.388 177.998C306.273 177.998 308.905 178.504 311.284 179.516C313.714 180.529 315.79 181.946 317.511 183.768C319.232 185.591 320.573 187.793 321.535 190.374C322.497 192.956 322.978 195.816 322.978 198.954ZM311.436 198.954C311.436 195.462 310.728 192.728 309.31 190.754C307.943 188.729 305.969 187.717 303.388 187.717C300.806 187.717 298.807 188.729 297.389 190.754C295.972 192.728 295.263 195.462 295.263 198.954C295.263 202.447 295.972 205.231 297.389 207.307C298.807 209.332 300.806 210.344 303.388 210.344C305.969 210.344 307.943 209.332 309.31 207.307C310.728 205.231 311.436 202.447 311.436 198.954Z" fill="white"/>
</svg>
